<?xml version="1.0" standalone="no"?>
<!DOCTYPE svg PUBLIC "-//W3C//DTD SVG 20010904//EN"
 "http://www.w3.org/TR/2001/REC-SVG-20010904/DTD/svg10.dtd">
<svg version="1.0" xmlns="http://www.w3.org/2000/svg"
 width="444.000000pt" height="544.000000pt" viewBox="0 0 444.000000 544.000000"
 preserveAspectRatio="xMidYMid meet">

<g transform="translate(0.000000,544.000000) scale(0.100000,-0.100000)"
fill="#000000" stroke="none">
<path d="M1940 4864 c-251 -32 -484 -118 -691 -255 -182 -121 -392 -356 -502
-561 -208 -390 -239 -880 -82 -1303 41 -111 103 -235 119 -241 15 -5 107 20
107 29 0 4 -18 44 -40 90 -52 110 -105 263 -133 389 -31 138 -33 445 -4 578
87 402 304 717 644 938 249 161 577 243 859 213 117 -12 269 -41 293 -56 8 -5
11 -4 6 3 -3 6 -2 13 4 17 7 4 7 12 0 26 -7 13 -7 19 0 19 14 0 13 27 -2 33
-7 3 1 6 17 7 24 1 16 6 -35 21 -123 37 -215 50 -370 54 -85 2 -171 1 -190 -1z"/>
<path d="M1458 3902 c-232 -231 -408 -415 -408 -425 0 -16 58 -81 312 -349 43
-46 82 -78 93 -78 12 0 169 149 428 408 357 356 407 410 405 434 -2 20 -55 82
-187 223 -146 155 -190 195 -210 195 -21 0 -109 -83 -433 -408z m686 54 c-5
-17 -9 -64 -10 -104 l-1 -74 -283 -283 -283 -283 -56 5 c-50 5 -95 -2 -141
-21 -11 -5 -40 20 -98 83 l-82 89 16 63 c10 39 14 80 10 108 l-6 46 284 284
283 283 49 -6 c30 -4 68 -1 99 7 l50 14 88 -90 c84 -85 89 -91 81 -121z"/>
<path d="M1563 3896 c-215 -100 -142 -435 95 -436 190 -1 295 213 181 370 -37
51 -115 90 -179 90 -27 0 -66 -10 -97 -24z m172 -25 c151 -70 158 -289 13
-360 -132 -64 -278 26 -278 170 0 32 5 70 11 86 24 64 109 123 179 123 19 0
53 -9 75 -19z"/>
<path d="M1580 3842 c-117 -64 -117 -238 -1 -306 43 -25 114 -26 160 -2 32 17
33 18 13 32 -18 13 -25 12 -57 -3 -34 -16 -36 -16 -57 4 l-21 21 42 22 c70 35
71 74 1 46 -55 -22 -83 -20 -108 7 -25 26 -27 45 -11 81 9 19 9 29 0 39 -17
21 13 45 33 28 12 -10 20 -9 42 5 25 17 27 17 40 -1 20 -27 18 -31 -21 -55
-19 -12 -35 -29 -35 -37 0 -16 4 -16 75 10 34 13 43 13 67 1 33 -17 45 -56 29
-90 -8 -19 -8 -29 1 -44 7 -11 16 -20 19 -20 12 0 39 79 39 113 -1 47 -33 111
-71 137 -45 33 -131 38 -179 12z"/>
<path d="M2457 3772 c-167 -41 -192 -50 -213 -76 -14 -15 -23 -30 -21 -32 2
-3 71 12 152 31 146 35 148 36 169 17 27 -25 92 -58 133 -67 36 -7 34 -2 73
-165 l22 -95 -40 -42 c-22 -23 -48 -62 -57 -87 -16 -40 -23 -47 -59 -57 -22
-6 -129 -35 -236 -64 -107 -29 -265 -72 -350 -95 l-155 -42 -54 36 c-29 20
-71 39 -93 42 -22 4 -48 16 -58 26 -18 20 -18 20 -29 -1 -9 -16 -7 -38 8 -97
22 -86 29 -96 63 -96 20 0 425 107 992 262 137 38 156 47 156 84 0 24 -129
525 -141 549 -14 25 -51 21 -262 -31z"/>
<path d="M2142 3609 c-86 -16 -151 -77 -178 -166 -45 -147 69 -303 222 -303
30 0 69 6 87 13 148 62 195 262 90 378 -62 68 -135 94 -221 78z m127 -48 c69
-35 121 -115 121 -185 0 -79 -74 -176 -150 -196 -57 -15 -102 -8 -159 27 -65
40 -94 99 -89 180 3 49 10 71 33 105 57 80 163 110 244 69z"/>
<path d="M2133 3549 c-65 -19 -123 -102 -123 -177 0 -31 27 -92 53 -120 33
-36 71 -52 122 -52 120 0 195 98 171 224 -9 46 -50 94 -101 117 -44 20 -73 22
-122 8z m33 -103 c8 -14 14 -33 12 -44 -2 -10 3 -26 10 -35 7 -8 16 -31 19
-50 4 -30 1 -38 -19 -51 -14 -9 -42 -17 -63 -19 l-38 -2 -23 90 c-29 113 -29
123 -1 128 60 12 87 7 103 -17z m142 -2 c4 -28 -34 -40 -48 -16 -9 16 -9 15
-10 -1 0 -12 10 -19 29 -23 40 -8 63 -36 59 -71 -6 -52 -84 -68 -109 -21 -12
23 -12 23 19 32 16 6 22 3 22 -8 0 -9 5 -16 10 -16 23 0 8 30 -17 36 -40 10
-63 33 -63 65 0 34 23 50 70 46 27 -1 36 -7 38 -23z"/>
<path d="M2104 3414 c3 -9 6 -20 6 -25 0 -6 4 -8 9 -5 12 8 2 46 -11 46 -6 0
-7 -7 -4 -16z"/>
<path d="M2125 3328 c10 -31 25 -47 25 -26 0 24 -11 48 -22 48 -5 0 -6 -10 -3
-22z"/>
<path d="M3841 2654 c0 -11 3 -14 6 -6 3 7 2 16 -1 19 -3 4 -6 -2 -5 -13z"/>
<path d="M1660 2447 c0 -225 -5 -241 -71 -235 -32 3 -40 0 -51 -20 -16 -31 1
-42 64 -42 59 0 95 29 108 85 5 22 10 122 10 223 l0 182 -30 0 -30 0 0 -193z"/>
<path d="M2342 2403 c-56 -131 -102 -241 -102 -245 0 -5 12 -8 28 -8 24 0 30
7 53 63 l25 62 102 3 101 3 30 -66 c27 -59 33 -65 60 -65 l29 0 -80 183 c-44
100 -91 210 -106 245 -14 34 -28 62 -32 62 -4 0 -52 -107 -108 -237z m149 15
l36 -83 -38 -3 c-22 -2 -56 -2 -77 0 l-39 3 35 83 c19 45 38 82 41 82 4 0 23
-37 42 -82z"/>
<path d="M3792 2531 c-6 -17 -7 -31 -3 -31 8 0 22 52 16 58 -1 2 -7 -11 -13
-27z"/>
<path d="M1947 2462 c-22 -24 -22 -71 0 -101 16 -24 16 -25 -22 -57 -32 -27
-39 -39 -39 -68 0 -82 102 -121 174 -68 l32 24 22 -21 c12 -12 32 -21 45 -21
22 0 22 1 -8 37 -27 33 -29 39 -16 53 18 20 19 36 4 45 -6 4 -18 -3 -26 -15
l-15 -22 -34 33 c-19 18 -34 36 -34 40 0 5 11 20 25 35 50 54 20 124 -53 124
-25 0 -45 -7 -55 -18z m77 -18 c23 -9 20 -47 -5 -70 -21 -19 -21 -18 -40 5
-24 29 -24 47 -1 60 20 12 25 13 46 5z m10 -183 l37 -38 -27 -22 c-15 -11 -40
-21 -55 -21 -29 0 -69 30 -69 52 0 15 50 68 65 68 6 0 28 -17 49 -39z"/>
<path d="M3747 2425 c-9 -19 -13 -35 -8 -35 9 0 34 60 28 66 -2 2 -11 -12 -20
-31z"/>
<path d="M3716 2363 c-6 -14 -5 -15 5 -6 7 7 10 15 7 18 -3 3 -9 -2 -12 -12z"/>
<path d="M3669 2293 c-39 -47 -43 -54 -26 -47 9 3 23 19 31 35 17 33 15 36 -5
12z"/>
<path d="M3597 2191 c-18 -26 -22 -38 -12 -35 8 4 15 11 15 17 0 6 7 19 17 29
9 10 14 20 11 23 -3 3 -17 -13 -31 -34z"/>
<path d="M3527 2096 c-29 -34 -33 -45 -22 -50 9 -3 15 0 15 9 0 8 4 15 9 15
10 0 44 61 37 67 -2 2 -19 -16 -39 -41z"/>
<path d="M2240 1909 c0 -4 7 -9 15 -13 12 -4 15 -27 15 -117 0 -106 -1 -111
-22 -117 -21 -5 -21 -6 -2 -13 10 -4 44 -8 74 -8 49 0 52 2 31 12 -23 11 -24
12 -17 122 3 60 6 111 6 113 0 1 10 6 23 11 16 7 3 10 -51 12 -39 2 -72 1 -72
-2z"/>
<path d="M1948 1898 c12 -6 22 -17 22 -24 0 -18 -51 -177 -55 -172 -2 2 -22
43 -44 91 l-40 88 22 9 c16 6 3 9 -50 9 -43 1 -73 -3 -73 -9 0 -5 7 -10 16
-10 10 0 36 -44 74 -126 45 -94 64 -125 76 -122 11 2 30 42 59 126 24 70 50
128 61 137 17 13 14 14 -36 14 -47 0 -52 -2 -32 -11z"/>
<path d="M2654 1864 c-65 -32 -94 -137 -54 -201 53 -87 194 -87 245 -1 25 42
24 121 -1 156 -42 57 -127 78 -190 46z m122 -25 c14 -16 18 -35 17 -80 -1 -74
-28 -130 -67 -144 -76 -26 -104 125 -41 221 20 30 65 32 91 3z"/>
<path d="M1475 1863 c-33 -5 -59 -23 -33 -23 8 0 21 -6 27 -14 13 -15 35 -125
27 -133 -3 -3 -40 27 -83 66 -79 71 -91 77 -152 65 l-32 -7 29 -17 c25 -15 29
-26 40 -96 16 -104 15 -121 -5 -133 -29 -16 -11 -19 42 -6 42 11 46 14 28 20
-15 5 -26 20 -32 44 -15 57 -24 131 -16 131 4 0 49 -38 100 -85 51 -47 97 -85
104 -85 15 0 14 35 -5 148 l-17 96 23 18 c24 20 22 20 -45 11z"/>
<path d="M3112 1757 c-13 -14 -22 -36 -22 -54 0 -30 8 -40 89 -106 15 -12 21
-27 19 -45 -2 -23 -8 -28 -36 -30 -43 -4 -69 18 -83 71 -12 45 -23 39 -33 -15
-6 -30 -4 -38 8 -38 9 0 30 -9 48 -20 48 -29 112 -27 143 5 46 45 34 76 -64
157 -48 40 -27 89 31 75 24 -6 32 -19 53 -82 5 -17 8 -17 15 -5 4 8 11 30 15
49 6 28 5 33 -7 28 -9 -3 -28 3 -44 14 -41 27 -105 25 -132 -4z"/>
<path d="M898 1735 c-101 -28 -134 -45 -88 -45 14 0 22 -11 30 -42 6 -24 18
-69 27 -102 13 -46 14 -62 5 -77 -10 -15 -9 -19 0 -19 17 0 208 57 214 63 8 8
-7 77 -16 72 -4 -2 -10 -18 -14 -35 -4 -23 -15 -35 -41 -45 -55 -24 -63 -20
-80 37 -12 41 -12 53 -3 60 20 12 40 9 60 -9 26 -23 28 -15 11 42 -14 47 -16
48 -25 25 -21 -57 -62 -54 -77 4 -6 25 -11 47 -11 50 0 3 17 10 38 15 32 9 41
8 65 -9 25 -19 27 -19 26 -3 -2 50 -7 51 -121 18z"/>
<path d="M3604 1518 c-25 -27 -41 -108 -21 -108 17 0 49 76 45 107 l-3 25 -21
-24z"/>
<path d="M1845 1444 c-49 -8 -109 -19 -133 -26 l-43 -13 196 -230 c108 -126
204 -238 213 -247 16 -16 17 -9 15 115 -4 207 -13 297 -28 297 -26 0 -74 51
-81 86 -7 39 -4 39 -139 18z"/>
<path d="M2745 1156 c-6 -8 -66 -81 -135 -163 -69 -81 -156 -188 -194 -237
-65 -82 -134 -146 -160 -146 -6 0 -18 -5 -26 -10 -13 -9 -13 -11 0 -20 8 -5
20 -10 26 -10 14 0 74 50 74 62 0 6 12 22 28 37 15 15 37 41 49 57 12 17 34
44 48 60 14 16 36 43 50 59 14 17 46 52 70 79 25 27 45 53 45 57 0 13 91 99
105 99 7 0 21 7 30 16 10 11 41 18 96 21 44 3 82 9 84 13 4 7 -130 40 -163 40
-9 0 -22 -6 -27 -14z"/>
<path d="M1480 1140 c-47 -10 -157 -39 -246 -64 -88 -25 -170 -46 -182 -46
-12 0 -22 -4 -22 -8 0 -15 208 20 220 37 9 14 162 43 259 50 l93 6 -18 22 -19
21 -85 -18z"/>
<path d="M3518 1111 c-9 -13 -35 -36 -58 -51 l-41 -27 32 -7 c43 -8 43 -8 68
13 17 15 22 28 19 58 l-3 38 -17 -24z"/>
</g>
</svg>
